<svg xmlns="http://www.w3.org/2000/svg" width="2327" height="337.627" viewBox="0 0 2327 337.627">
  <g id="Group_1081" data-name="Group 1081" transform="translate(407 -10460.4)">
    <path id="Path_770" data-name="Path 770" d="M0,0H1920V337H0Z" transform="translate(0 10461)" fill="#ff929c"/>
    <path id="Path_782" data-name="Path 782" d="M491.8,330H0V-7l352.348-.072Z" transform="translate(-271 10468)" fill="#fff" opacity="0.099"/>
    <path id="Path_783" data-name="Path 783" d="M241.488-.149,586.973.372l-8.752,336.712h-713.19v-1.551Z" transform="translate(947 10460.628)" fill="#fff" opacity="0.099"/>
    <path id="Path_784" data-name="Path 784" d="M79.32,7.549H499.176L578,344.26H-135.209v-1.551Z" transform="translate(1275 10453.451)" fill="#fff" opacity="0.099"/>
    <path id="Path_785" data-name="Path 785" d="M94.42,6.949l483.531.766-27.5,336.546H0Z" transform="translate(1342 10453.451)" fill="#fff" opacity="0.099"/>
    <path id="Path_786" data-name="Path 786" d="M491.8,344.548H0v-337L430.785,7.7Z" transform="translate(-407 10453.451)" fill="#ff929c"/>
    <path id="Path_788" data-name="Path 788" d="M363.471,7.549H-11.8L-135.209,344.26H578v-1.551Z" transform="translate(440.955 10453.451)" fill="#fff" opacity="0.099"/>
    <path id="Path_789" data-name="Path 789" d="M470.295,6.949H51.109L68.68,344.577l496.035-.316Z" transform="translate(152.031 10453.451)" fill="#fff" opacity="0.099"/>
    <path id="Path_790" data-name="Path 790" d="M79.32,7.549H578V344.26H-135.209v-1.551Z" transform="translate(630.955 10453.451)" fill="#fff" opacity="0.099"/>
  </g>
</svg>
