<svg xmlns="http://www.w3.org/2000/svg" width="90" height="90" viewBox="0 0 90 90">
    <defs>
        <style>
            .prefix__cls-1{fill:#ff929c}
        </style>
    </defs>
    <g id="prefix___24-hours" data-name="24-hours" transform="translate(-11.238 -10.993)">
        <g id="prefix__Group_977" data-name="Group 977" transform="translate(11.238 10.993)">
            <path id="prefix__Path_619" d="M100.982 51.237A45.034 45.034 0 0 0 18.638 31.2a3.754 3.754 0 0 0 6.268 4.133 37.5 37.5 0 1 1 .57 42.152l6.929 1.488a3.757 3.757 0 1 0 1.581-7.347l-14.98-3.216a3.755 3.755 0 0 0-4.466 2.884l-3.217 14.969a3.847 3.847 0 0 0 2.886 4.463 3.613 3.613 0 0 0 4.466-2.884l1.158-5.4a45.234 45.234 0 0 0 36.448 18.551 40.931 40.931 0 0 0 4.719-.257 45.056 45.056 0 0 0 39.977-49.5z" class="prefix__cls-1" data-name="Path 619" transform="translate(-11.238 -10.993)"/>
            <path id="prefix__Path_620" d="M147.518 198.71a6.2 6.2 0 0 0 .846-3.091 5.59 5.59 0 0 0-1.987-4.544 6.991 6.991 0 0 0-4.618-1.674 8.023 8.023 0 0 0-4.305 1.049 10.565 10.565 0 0 0-3.054 3.128l2.852 1.656a5.023 5.023 0 0 1 4.305-2.649 3.462 3.462 0 0 1 2.429.883 2.8 2.8 0 0 1 .957 2.153 4.181 4.181 0 0 1-.9 2.5 35.953 35.953 0 0 1-3.036 3.4l-6.347 6.384v3h14.369v-3.4h-9.549l4.931-5.023a20.287 20.287 0 0 0 3.107-3.772z" class="prefix__cls-1" data-name="Path 620" transform="translate(-111.767 -156.649)"/>
            <path id="prefix__Path_621" d="M236.227 192.2l-7.727 12.584v3.128h9.015v5.28h3.367v-5.28h2.518v-3.22h-2.521v-3.845h-3.367v3.845h-5.023l7.617-12.492z" class="prefix__cls-1" data-name="Path 621" transform="translate(-188.574 -158.935)"/>
            <path id="prefix__Path_622" d="M329.1 185.3v22.262h3.367v-8.647a4.291 4.291 0 0 1 1.288-3.385 4.412 4.412 0 0 1 3.036-1.159c2.447 0 3.661 1.472 3.661 4.416v8.776h3.367v-9.788a6.419 6.419 0 0 0-1.674-4.784 5.939 5.939 0 0 0-4.379-1.656 6.117 6.117 0 0 0-3.146.846 5.28 5.28 0 0 0-2.171 2.318v-9.2z" class="prefix__cls-1" data-name="Path 622" transform="translate(-270.687 -153.303)"/>
        </g>
    </g>
</svg>
