<svg xmlns="http://www.w3.org/2000/svg" id="prefix__business-man-throwing-papers" width="61" height="89.545" viewBox="0 0 61 89.545">
    <path id="prefix__Path_573" d="M28.381 9.266a9.279 9.279 0 1 1 9.279 9.266 9.272 9.272 0 0 1-9.279-9.266zm30.9 36.979a3.6 3.6 0 0 1-3.053-1.685 91.882 91.882 0 0 0-9.067-12.013v14.7a7.932 7.932 0 0 1-.883 3.677v34.369a4.257 4.257 0 0 1-8.514 0V55.747h-.1c-.17 0-.338-.012-.506-.019v29.565a4.257 4.257 0 0 1-8.514 0v-34.45a4.129 4.129 0 0 1 .043-.57 7.264 7.264 0 0 1-.518-2.7v-5.439a24.022 24.022 0 0 0-1.089 4.515 3.6 3.6 0 0 1-3.3 3.755c-.1.009-.2.014-.3.014a3.6 3.6 0 0 1-3.586-3.306c-.269-3.285 3.343-12.676 3.5-13.074 4.2-10.863 7.131-12.661 8.1-13.251a3.655 3.655 0 0 1 .474-.227 10.694 10.694 0 0 1 3.432-1.511.152.152 0 0 1 .024 0l2.24 2.351 2.311-2.325a10.962 10.962 0 0 1 3.375 1.472c7.283 2.89 15.835 15.353 18.35 19.206l.3-.836 6.037 2.124.8 1.955-2.662 7.541-7.361-2.6.241-.681.358-1.015c-.049-.003-.093.004-.135.004zm8.136-3.882l.625.269-.321-.787zm-7.857 5.22l6.246 2.2 2.289-6.483-1.218-.524-.087-.52.5-.846-4.936-1.74-.251.711c.093.145.173.272.226.357a3.578 3.578 0 0 1 .481 2.558l.218-.579.316.353a.216.216 0 0 0 .219.059l.122-.041-.462 1.212a.048.048 0 0 1-.062.028l-.591-.224a3.736 3.736 0 0 1-.276.487l3.833 1.338-.19.547-4.02-1.405a3.613 3.613 0 0 1-.56.493l4.366 1.524-.193.545-4.824-1.686a3.6 3.6 0 0 1-.641.2zM39.921 36.675l-2.238-14.937h-.044L35.4 36.675l2.237 3.056h.043zm40.952 23.518l-1.664 27.893-1.384 1.3H61.576l-1.383-1.3-1.664-27.893 1.383-1.466h2.055l-.122-.343.8-1.954 6.033-2.13.105.3 2.7-8.42 6.1 1.953.857 1.93-2.444 7.616-6.9-2.208 1.156 3.258h9.239zM77.007 49.47l.633.25-.344-.776zm-7.7 5.444l6.306 2.017 2.1-6.546-1.23-.485-.1-.52.473-.859-4.984-1.6zm.335 6.58l-4.767 1.7-.193-.542 3.249-1.159h-1.937l-1.531.547-.2-.542.014-.005h-.7l.988 2.788 1.141.594 5.415-1.914-.521-1.467zm-7.007-3.474l.625-.269-.3-.517zm-.052.666l.013.04h3.01a1.177 1.177 0 0 1 1.259-.981h.006v.014l-.032.387a.015.015 0 0 1 0 .009h-.015a.822.822 0 0 0-.255.019.739.739 0 0 0-.527.53h3.578l-1.3-3.674-4.934 1.77.5.849-.086.521zm-1.13 3.977l2.341 1.217-.845-2.387h-1.566zm.428 7.186l.61.316 4.892-2.544-5.816-3.021zm7.625 6.222l-.413.893-.477.225-1.125-.7L65.683 79l2.973 1.6a1.172 1.172 0 0 1 1.8-1.446 1.208 1.208 0 0 1 .255.308.014.014 0 0 1 0 .006v.012c0 .006 0 0 0 0l-.337.2H70.353a.006.006 0 0 1-.006 0 .756.756 0 0 0-.162-.2.742.742 0 0 0-.967 1.126.719.719 0 0 0 .27.144l1.306-.705a.758.758 0 0 0-.09-.374.047.047 0 0 0 0-.007v-.005l.338-.194h.014a.039.039 0 0 1 .013.011 1.185 1.185 0 0 1 .131.364l.643-.347-2.363-1.698.374-.523 2.61 1.866.747-.4zm4.284 2.352l.479-.256-3.026-1.577zm-2.837 3.423l.6.325.767-1.065zm-3.961-.246l.4.286.066-.035zm-2.651.392l.337-.467 1.458 1.042.695-.375-1.741-1.245.2-.272-.582-.314-1.234 1.712L65 83.171l.566-.306zm.817-3.273l1.268-1.759-2.3 1.2zm3.491-2.2l.252-.545-.828.184zm5.43-5.41l-4.894-2.544-4.894 2.535 4.893 2.547zM62.357 77.2l5.027-2.617-4.893-2.545-.466.243.292 4.9zm.392 7.192l1.676-.906L62.64 82.2l1.536-2.131-1.743-.944zm6.033 2.227l-2.857-2.056-3.067 1.658.022.4h5.9zm.06-.686l1.733-2.4-1.369-.74-.307.165.725.519-.335.467-.953-.681-.7.375 1.234.884-.334.467-1.463-1.046-.573.311zm7.449.686L71.1 83.814l-2.023 2.806zm.651-7.063l-.892-.465-2.527 1.366-1.442 2 4.541 2.455zm.4-6.754l-1.466-.763-4.893 2.545 5.05 2.627 1.081-.585zm.523-8.76l-6.882 3.58 4.893 2.544 1.675-.869zm.152-2.548h-6.785l.646 1.828-5.454 1.928 2.759 1.435 8.8-4.575zm-9.688-4.958l-.217-.605-3.534 1.269.218.605zm1.841 6.124l-.2-.541-4.855 1.754.2.54zm-3.107-5.208a.03.03 0 0 0-.015 0 .006.006 0 0 0 0 .005l-.034.387v.007a.007.007 0 0 0 0 .005.742.742 0 0 1 .653.552.679.679 0 0 1 .02.12h.012l.387-.041h.016v-.005a1.14 1.14 0 0 0-.033-.186 1.179 1.179 0 0 0-1.004-.844zm8.613-8.5L72.105 47.8l-.2.609 3.573 1.155zm.437 4.29L71.2 51.656l-.178.547 4.911 1.59zm-5.291-.423l-.178.549 4.912 1.593.178-.549zm-.577 1.772l4.911 1.59.178-.549-4.911-1.59zm4.193-2.455l-3.15-.973.029-.092.11.036.706-2.286.578 1.1.529-.255.433.606 1.19-.024L74.322 52l.147.045zm-.928-1.333l1.091-.024.136-.441-1.11.022-.416-.583-.54.259-.516-.977-.107.344.476 1.054.5-.112zm-6.691-8.691l-3.514-1.322-.226.6 3.521 1.325zm-1.579 1.962a.152.152 0 0 1-.091-.1.128.128 0 0 1-.006-.057.157.157 0 0 1 .056-.1l.145-.109-.194-.228-.512 1.353a.048.048 0 0 0 .027.062l.609.229a.052.052 0 0 0 .063-.028l.362-.964-.427-.054a.173.173 0 0 1-.032-.004zm-.669-1.274l-.459.151-.56 1.478a.046.046 0 0 0 .028.06l.608.229a.048.048 0 0 0 .062-.027l.594-1.571zm1.395.576l-.239.187-.946-1.108a.091.091 0 0 0-.1-.03l-1.084.351-.586-.654a.1.1 0 1 0-.144.126l.633.7a.09.09 0 0 0 .1.027l1.081-.354.9 1.053-.237.183a.043.043 0 0 0-.015.024v.015a.035.035 0 0 0 .03.026l.556.072a.039.039 0 0 0 .041-.032l.071-.555a.035.035 0 0 0-.027-.036.036.036 0 0 0-.034.002zm-5.735 3.771l4.874 1.7.19-.545-4.874-1.7z" data-name="Path 573" transform="translate(-19.873)" style="fill:#ff929c"/>
</svg>
