<svg xmlns="http://www.w3.org/2000/svg" width="64" height="60" viewBox="0 0 64 60">
    <defs>
        <style>
            .prefix__cls-1{fill:#8d8d8d}
        </style>
    </defs>
    <g id="prefix___002---Give-Women_s-Rights" data-name="002---Give-Women's-Rights" transform="translate(-.945 -.945)">
        <path id="prefix__Shape" d="M20.153 27.742a3.568 3.568 0 0 0-6-2.695l-6 5.667A3.563 3.563 0 1 0 13.04 35.9l6-5.667a3.541 3.541 0 0 0 1.111-2.49z" class="prefix__cls-1" transform="translate(.938 3.522)"/>
        <path id="prefix__Shape-2" d="M45.489 1.012a17.644 17.644 0 0 0-12.674 4.826c-25.381 23.968-.83.785-12 11.337a2.454 2.454 0 0 0-.751 1.672c-.065 2.585 4.483 4.609 7.351 1.9l8.616-8.132a3.463 3.463 0 0 1 4.895.141L57.947 30.8C68.184 19.812 60.86 1.461 45.489 1.012z" class="prefix__cls-1" data-name="Shape" transform="translate(2.254 .009)"/>
        <path id="prefix__Shape-3" d="M31.372 39.634a3.568 3.568 0 0 0-6-2.695l-6 5.667a3.563 3.563 0 1 0 4.89 5.183l6-5.667a3.535 3.535 0 0 0 1.111-2.488z" class="prefix__cls-1" data-name="Shape" transform="translate(2.399 5.32)"/>
        <path id="prefix__Shape-4" d="M59.372 33.216c-.114-.082.241.263-17.654-18.891a1.133 1.133 0 0 0-1.613-.046L31.587 22.4a6.9 6.9 0 0 1-9.845-.29 4.71 4.71 0 0 1 .184-6.62l9.345-8.913a17.4 17.4 0 0 0-16.812-5.164A17.588 17.588 0 0 0 1.674 13.586 17.814 17.814 0 0 0 5.785 30.84L7.4 32.569c.1-.115.01-.013 5.952-5.677a5.752 5.752 0 0 1 6.746-.883 5.872 5.872 0 0 1 2.93 6.2 5.717 5.717 0 0 1 4.935 1.771 5.846 5.846 0 0 1 1.466 5.078 5.723 5.723 0 0 1 4.936 1.775 5.852 5.852 0 0 1 1.466 5.08 5.7 5.7 0 0 1 4.843 1.674 5.831 5.831 0 0 1 1.594 4.913 3.5 3.5 0 0 0 4.525-.865 3.579 3.579 0 0 0-.2-4.647L31.39 30.72a1.161 1.161 0 0 1-.263-1.122 1.146 1.146 0 0 1 .83-.791 1.134 1.134 0 0 1 1.093.33l15.2 16.273a3.5 3.5 0 0 0 3.375 1.019 3.538 3.538 0 0 0 2.562-2.442 3.583 3.583 0 0 0-.814-3.462l-15.2-16.272a1.161 1.161 0 0 1 .057-1.619 1.133 1.133 0 0 1 1.6.038l15.208 16.273a3.5 3.5 0 0 0 3.819.879 3.559 3.559 0 0 0 2.266-3.224 4.473 4.473 0 0 0-1.75-3.381z" data-name="Shape" style="fill:#ff929c"/>
        <path id="prefix__Shape-5" d="M33.524 41.916a3.54 3.54 0 0 0-2.548.97l-6 5.668a3.563 3.563 0 1 0 4.891 5.183l6-5.667a3.569 3.569 0 0 0-2.343-6.154z" class="prefix__cls-1" data-name="Shape" transform="translate(3.177 6.236)"/>
        <path id="prefix__Shape-6" d="M25.758 33.688a3.568 3.568 0 0 0-6-2.695l-6 5.667a3.564 3.564 0 0 0 4.891 5.185l6-5.668a3.54 3.54 0 0 0 1.109-2.489z" class="prefix__cls-1" data-name="Shape" transform="translate(1.625 4.427)"/>
    </g>
</svg>
