<svg xmlns="http://www.w3.org/2000/svg" id="prefix__lighting" width="90" height="90" viewBox="0 0 90 90">
    <path id="prefix__Path_566" d="M96.2 10L42.944 39.554l13.016 6.918-26.72 17.2 11.232 5.86L10 96.2l51.866-26.043-12.89-6.851 25.873-16.241-13.627-7.243z" data-name="Path 566" transform="translate(-8.102 -8.101)" style="fill:#ff929c"/>
    <path id="prefix__Path_569" d="M.3 89.223a1.757 1.757 0 0 0 2.247.59l52.037-26.13a1.758 1.758 0 0 0 .036-3.123l-10.25-5.448 23.385-14.679a1.758 1.758 0 0 0-.11-3.041l-11.39-6.054L89.384 3.1A1.758 1.758 0 0 0 87.391.221l-53.434 29.65a1.758 1.758 0 0 0 .028 3.089L44.4 38.494 20.11 54.128a1.758 1.758 0 0 0 .138 3.037l8.991 4.691L.6 86.919a1.757 1.757 0 0 0-.3 2.304zm33.188-26.415a1.758 1.758 0 0 0-.345-2.881l-8.587-4.48L48.82 39.828a1.758 1.758 0 0 0-.127-3.03l-10.2-5.422 35.235-19.553-21.72 18.517a1.758 1.758 0 0 0 .315 2.89l10.989 5.841L39.928 53.75a1.758 1.758 0 0 0 .11 3.041l9.929 5.277-36.674 18.416z" data-name="Path 569" transform="translate(-.002)" style="fill:#fab7bd"/>
</svg>
