<svg xmlns="http://www.w3.org/2000/svg" id="prefix__log-in" width="58" height="60" viewBox="0 0 58 60">
    <defs>
        <style>
            .prefix__cls-1{fill:#8d8d8d}
        </style>
    </defs>
    <path id="prefix__Path_551" d="M181.961 1.814V16.8a5.24 5.24 0 0 0-4.835.562l-7.42 5.56a5.33 5.33 0 0 0-2.259 4.411 5.43 5.43 0 0 0 2.424 4.528l7.092 5.326a5.25 5.25 0 0 0 5 .678v11.359a1.813 1.813 0 0 1-1.814 1.814H163.82V12.7a5.472 5.472 0 0 0-2.44-4.539L150.5 0h29.647a1.813 1.813 0 0 1 1.814 1.814zm0 0" class="prefix__cls-1" data-name="Path 551" transform="translate(-142.05)"/>
    <path id="prefix__Path_552" d="M330.5 1.758a1.749 1.749 0 0 1 .92-1.529 1.865 1.865 0 0 1 1.828.022L347.761 10.8a1.747 1.747 0 0 1 .88 1.507v45.935a1.748 1.748 0 0 1-.919 1.529 1.866 1.866 0 0 1-1.828-.022L331.381 49.2a1.748 1.748 0 0 1-.881-1.5zm12.7 33.516a1.759 1.759 0 1 0-1.814-1.758 1.787 1.787 0 0 0 1.814 1.758zm0 0" class="prefix__cls-1" data-name="Path 552" transform="translate(-330.5)"/>
    <path id="prefix__Path_553" d="M27.712 176.886H11.385v1.814a1.814 1.814 0 0 1-2.82 1.509l-7.257-5.442a1.814 1.814 0 0 1 0-3.018l7.257-5.444a1.814 1.814 0 0 1 2.82 1.51v1.815h16.327a1.813 1.813 0 0 1 1.814 1.814v3.628a1.813 1.813 0 0 1-1.814 1.814zm0 0" class="prefix__cls-1" data-name="Path 553" transform="translate(28.474 -145.739)"/>
</svg>
