<svg xmlns="http://www.w3.org/2000/svg" width="85.52" height="90" viewBox="0 0 85.52 90">
    <defs>
        <style>
            .prefix__cls-2{fill:#cecece}
        </style>
    </defs>
    <g id="prefix__muscle" transform="translate(-.348)">
        <path id="prefix__Path_640" d="M291.61 35.943a6.181 6.181 0 0 0-8.741 0l-1.711 1.711-1.71-1.711a6.181 6.181 0 1 0-8.741 8.741l1.71 1.711 8.741 8.741 10.452-10.452a6.183 6.183 0 0 0 0-8.741zm0 0" data-name="Path 640" transform="translate(-209.543 -26.632)" style="fill:red"/>
        <path id="prefix__Path_641" d="M286.284 30.616l1.06-1.061a7.682 7.682 0 0 0-10.862 0l-.65.65-.649-.65a7.681 7.681 0 1 0-10.862 10.862l1.71 1.71 8.741 8.741a1.5 1.5 0 0 0 2.122 0l10.452-10.452a7.682 7.682 0 0 0 0-10.862l-2.122 2.122a4.681 4.681 0 0 1 0 6.619l-9.391 9.391-7.68-7.68-1.71-1.711a4.681 4.681 0 0 1 6.62-6.619l1.709 1.71a1.5 1.5 0 0 0 2.122 0l1.711-1.71a4.682 4.682 0 0 1 6.62 0zm0 0" class="prefix__cls-2" data-name="Path 641" transform="translate(-204.218 -21.304)"/>
        <path id="prefix__Path_642" d="M91.169 51.7s-16.5-13.463-30 4.488c0 0-12-10.472-25.5 0l-1.5-25.43s-.663-.909-1.692-2.234l.821.084s5.315 0 6.2-1.981l2.949 2.712a2.822 2.822 0 0 0 3.915-.281l7.293-8.154a2.8 2.8 0 0 0 .173-3.526L45.7 6.828 21.783 17.719a2.24 2.24 0 0 0-1.116 1.076c-1.5 4.487-13.5 47.867-13.5 50.859v3.473a2.082 2.082 0 0 0 .8 1.65c.651.508 3.887 1.4 5.2 2.356 5.662 4.129 14.472 11.351 24 13.463 13.5 2.992 30-1.5 30-1.5a43.286 43.286 0 0 0 24 4.488V51.7" data-name="Path 642" transform="translate(-5.322 -5.327)" style="fill:#ff929c"/>
        <g id="prefix__Group_987" data-name="Group 987" transform="translate(.348)">
            <path id="prefix__Path_643" d="M83.267 42.016c-2.582-1.278-6.872-1.979-11.027-1.982a18.952 18.952 0 0 0-8.777 2.142 26.2 26.2 0 0 0-8.815 7.791l1.2.9.988-1.126a20.772 20.772 0 0 0-3.915-2.533 22.03 22.03 0 0 0-9.962-2.492 21.785 21.785 0 0 0-13.532 4.969l.921 1.181 1.5-.088-1.5-25.432a1.507 1.507 0 0 0-.285-.793c-.007-.009-.678-.928-1.717-2.268l-1.186.915-.16 1.487.821.083.152.008A19.681 19.681 0 0 0 31 24.509a10.416 10.416 0 0 0 2.448-.7 5.094 5.094 0 0 0 1.164-.7 3.31 3.31 0 0 0 .935-1.2l-1.37-.609-1.017 1.1 2.948 2.712.052.045a4.327 4.327 0 0 0 6-.43l7.293-8.154a4.3 4.3 0 0 0 .266-5.4l-.022-.029L41.567.585a1.5 1.5 0 0 0-1.813-.45L15.84 11.028l.623 1.36-.605-1.369a4.18 4.18 0 0 0-.754.443 3.174 3.174 0 0 0-1.179 1.528c-.2.611-.553 1.776-1.028 3.408-1.656 5.694-4.779 16.919-7.497 27.063-1.351 5.072-2.6 9.871-3.521 13.577-.459 1.853-.833 3.433-1.1 4.646q-.2.912-.309 1.549a6.86 6.86 0 0 0-.126 1.095V67.8a3.581 3.581 0 0 0 1.376 2.828 3.436 3.436 0 0 0 .625.372c.685.33 1.591.645 2.5 1a11.164 11.164 0 0 1 2.114 1.008c2.8 2.04 6.455 4.909 10.635 7.546a45.067 45.067 0 0 0 13.926 6.172A49.979 49.979 0 0 0 42.231 87.8a85.6 85.6 0 0 0 20.013-2.577l-.4-1.443-.745 1.3A44.729 44.729 0 0 0 81.469 90a38.338 38.338 0 0 0 4.393-.215c-.017-.593.018-1.967 0-2.969a41.454 41.454 0 0 1-4.393.192 42.713 42.713 0 0 1-13.576-2.285 39.486 39.486 0 0 1-3.94-1.565c-.456-.211-.8-.387-1.035-.506l-.256-.136-.059-.033-.012-.007a1.516 1.516 0 0 0-1.139-.145l-.094.025a83.036 83.036 0 0 1-19.129 2.447 47 47 0 0 1-10.058-.993A42.177 42.177 0 0 1 19.2 78.032C15.176 75.5 11.6 72.691 8.732 70.6a8.91 8.91 0 0 0-1.539-.855c-.817-.371-1.7-.7-2.423-.974-.36-.138-.68-.264-.911-.366l-.264-.125-.052-.029-.172.278.2-.256-.029-.022-.172.278.2-.256a.586.586 0 0 1-.226-.473v-3.473a8.8 8.8 0 0 1 .142-.912c.347-1.833 1.275-5.642 2.481-10.316 1.81-7.021 4.255-16.049 6.376-23.708 1.061-3.83 2.041-7.317 2.82-10.04s1.363-4.7 1.6-5.414l-.27-.09.245.147.025-.057-.27-.09.245.147-.039-.023.037.027-.039-.023.037.027.2-.165.118-.069.024-.012-.24-.5.224.507.016-.007-.24-.5.224.507.018-.008 22.829-10.4 7.4 9.612 1.19-.912-1.211.882a1.309 1.309 0 0 1-.082 1.648l-7.293 8.154a1.321 1.321 0 0 1-1.831.132l-.965 1.145 1.016-1.1-2.938-2.716a1.5 1.5 0 0 0-2.387.49l-.015.021a2.1 2.1 0 0 1-.839.477 11.018 11.018 0 0 1-2.573.516c-.409.039-.769.06-1.021.069l-.292.009h-.089v1.5l.152-1.488-.821-.084a1.5 1.5 0 0 0-1.338 2.4c.507.655.925 1.207 1.215 1.594s.449.605.45.605l1.214-.88-1.5.088 1.5 25.431a1.5 1.5 0 0 0 2.419 1.093 18.758 18.758 0 0 1 11.69-4.339 19.042 19.042 0 0 1 8.593 2.162 20.55 20.55 0 0 1 2.477 1.489c.285.2.5.366.641.478l.154.124.033.028h.005l.374-.431-.377.429.374-.431-.377.429a1.5 1.5 0 0 0 2.188-.228 23.219 23.219 0 0 1 7.794-6.929 15.924 15.924 0 0 1 7.4-1.807c3.513 0 7.385.523 9.691 1.669a24.146 24.146 0 0 1 2.711 1.567c.316.212.557.387.717.506l.175.134.039.031c.648.537.279-3.622-2.303-4.906z" class="prefix__cls-2" data-name="Path 643" transform="translate(-.348)"/>
            <path id="prefix__Path_644" d="M117.9 234.281a2.048 2.048 0 0 0 1-.292 4.8 4.8 0 0 0 1.7-1.95 20.719 20.719 0 0 0 1.749-4.9 1.5 1.5 0 1 0-2.911-.727 13.951 13.951 0 0 1-1.807 4.714l-.2.231-.031.027h-.005l.5.745v-.858a.967.967 0 0 0-.5.112l.5.745v-.858a1.5 1.5 0 0 0 0 3zm0 0" class="prefix__cls-2" data-name="Path 644" transform="translate(-90.899 -175.927)"/>
            <path id="prefix__Path_645" d="M253.6 234.284c.014-.381-.2-3.838-4.94-8.562a1.5 1.5 0 0 0-2.122 2.122 16.385 16.385 0 0 1 3.62 4.968 6.265 6.265 0 0 1 .4 1.228l.039.252v.029l.767-.037h-.764v.037l.767-.037h-.767a1.5 1.5 0 0 0 3 0zm0 0" class="prefix__cls-2" data-name="Path 645" transform="translate(-192.104 -175.933)"/>
            <path id="prefix__Path_646" d="M341.676 308.7a2.748 2.748 0 0 0 .279 1.121 6.08 6.08 0 0 0 2.679 2.6 22.363 22.363 0 0 0 7.3 2.258h1.25v-2.854l-.756-.105c-4.346-.719-6.349-1.8-7.163-2.485a2.075 2.075 0 0 1-.583-.671l-.017-.044h-.011.011-.011.011l-.758.179h.773l-.015-.179-.758.179h.773a1.5 1.5 0 0 0-3 0zm0 0" class="prefix__cls-2" data-name="Path 646" transform="translate(-267.677 -239.9)"/>
        </g>
        <path id="prefix__Path_647" d="M83.761 300.375a1.5 1.5 0 0 0-1.285 2.272 24.69 24.69 0 0 0 5.718 6.084 28.735 28.735 0 0 0 17.941 5.987h.02a37.813 37.813 0 0 0 7.927-.875 1.5 1.5 0 0 0-.312-2.968 1.524 1.524 0 0 0-.316.034 34.743 34.743 0 0 1-7.3.809 25.715 25.715 0 0 1-16.119-5.357 24.467 24.467 0 0 1-3.81-3.672c-.412-.5-.714-.906-.909-1.186-.1-.139-.168-.246-.213-.315l-.046-.073-.009-.014a1.5 1.5 0 0 0-1.288-.727" class="prefix__cls-2" data-name="Path 647" transform="translate(-63.916 -234.618)"/>
    </g>
</svg>
