<svg xmlns="http://www.w3.org/2000/svg" id="prefix__pay" width="51.427" height="60" viewBox="0 0 51.427 60">
    <defs>
        <style>
            .prefix__cls-1{fill:#ff929c}.prefix__cls-2{fill:#8d8d8d}
        </style>
    </defs>
    <path id="prefix__Path_559" d="M89.892 337.274a4.3 4.3 0 0 0 4.142-3.173c.017-.065.017-.129.031-.195l11.8-6.379a2.1 2.1 0 0 1 1.05-.278 2.209 2.209 0 0 1 .411.038 2.013 2.013 0 0 1 .536.174 2.1 2.1 0 0 1 .92.85 2.176 2.176 0 0 1 .287 1.072 2.131 2.131 0 0 1-1.065 1.86l-19.531 11.691a3.223 3.223 0 0 1-1.707.491h-15.1a3.225 3.225 0 0 1-1.179-.225l-3.934-1.554V330.1l3.83-2.294a3.212 3.212 0 0 1 1.651-.457h4.106a7.492 7.492 0 0 1 1.937.255l12.366 3.31a2.166 2.166 0 0 1 1.578 1.89v.351a1.957 1.957 0 0 1-.062.4 2.143 2.143 0 0 1-2.073 1.579c-.13-.011-.761-.14-1.249-.252l-11.095-2.97L77 333.98l11.131 2.979a10.473 10.473 0 0 0 1.761.315zm0 0" class="prefix__cls-1" data-name="Path 559" transform="translate(-57.985 -283.425)"/>
    <path id="prefix__Path_562" d="M90.8 16.863a9.664 9.664 0 0 1-4.917 1.6v-5.175a7.792 7.792 0 0 0 2.19-1.23l.628-.509-1.35-1.665-.622.5a5.68 5.68 0 0 1-7.229-.104l-.75-.643-6.32 6.323a2.149 2.149 0 1 1-3.03-3.046l7.562-7.571-1.518-1.514-2.6 2.6H64L68.233 2.2a7.451 7.451 0 0 1 5.3-2.2H87.01a3.217 3.217 0 0 1 1.437.34l2.4 1.2a5.38 5.38 0 0 0 2.591.561l1.01-.036v14.009h-2.461zm0 0" class="prefix__cls-2" data-name="Path 562" transform="translate(-43.025)"/>
    <path id="prefix__Path_563" d="M184.722 69.164v18.412H144V64h27.687l-2.143 2.143H151.5v1.072a4.287 4.287 0 0 1-4.287 4.287h-1.072v8.573h1.072a4.287 4.287 0 0 1 4.287 4.287v1.072h25.719v-1.073a4.287 4.287 0 0 1 4.287-4.287h1.072V71.5h-1.072a4.276 4.276 0 0 1-3.441-1.741l1.828-1.828a7.794 7.794 0 0 0 4.829 1.233zm0 0" data-name="Path 563" transform="translate(-144 -55.427)" style="fill:#fab7bd"/>
    <path id="prefix__Path_564" d="M199.606 101.861a4.287 4.287 0 0 0 3.029-1.242L204.251 99a6.4 6.4 0 0 0 3.9 2.269v4.464A6.448 6.448 0 0 0 202.88 111h-21.611a6.448 6.448 0 0 0-5.269-5.266v-4.464a6.448 6.448 0 0 0 5.269-5.27h14.35a4.214 4.214 0 0 0 .351 3.847 5.357 5.357 0 1 0 .609.777 4.315 4.315 0 0 0 3.027 1.237zm0 0" class="prefix__cls-1" data-name="Path 564" transform="translate(-171.713 -83.144)"/>
    <path id="prefix__Path_565" d="M272 131.215a3.215 3.215 0 1 0 3.215-3.215 3.215 3.215 0 0 0-3.215 3.215zm0 0" class="prefix__cls-2" data-name="Path 565" transform="translate(-254.857 -110.858)"/>
</svg>
