<svg xmlns="http://www.w3.org/2000/svg" width="200" height="200" viewBox="0 0 200 200">
  <g id="Group_1082" data-name="Group 1082" transform="translate(-1427 -6916)">
    <g id="Group_982" data-name="Group 982" transform="translate(311 5781)">
      <circle id="Ellipse_58" data-name="Ellipse 58" cx="45" cy="45" r="45" transform="translate(1171 1190)" fill="#fff"/>
      <path id="Path_582" data-name="Path 582" d="M64.383,28.629a39.947,39.947,0,1,0,40.183,39.947A40.066,40.066,0,0,0,64.383,28.629Zm0,72.389A32.443,32.443,0,1,1,97.017,68.576,32.576,32.576,0,0,1,64.383,101.018Zm0,0" transform="translate(1151.04 1166.386)" fill="#fab7bd"/>
      <path id="Path_583" data-name="Path 583" d="M82.413,50.484A36.119,36.119,0,1,0,118.768,86.6,36.278,36.278,0,0,0,82.413,50.484Zm0,68.574A32.456,32.456,0,1,1,115.081,86.6,32.6,32.6,0,0,1,82.413,119.059Zm0,0" transform="translate(1133.009 1148.359)" fill="#ff929c"/>
      <path id="Path_584" data-name="Path 584" d="M9.525,122.689a4.763,4.763,0,1,1-4.763-4.763A4.762,4.762,0,0,1,9.525,122.689Zm0,0" transform="translate(1171 1092.812)" fill="#b57d49"/>
      <path id="Path_585" data-name="Path 585" d="M145.666,122.693a4.763,4.763,0,1,1-4.762-4.763A4.762,4.762,0,0,1,145.666,122.693Zm0,0" transform="translate(1058.942 1092.809)" fill="#b57d49"/>
      <path id="Path_586" data-name="Path 586" d="M46.977,18.81V40.957c0,5.759-6.74,10.6-10.737,11.985a6.16,6.16,0,0,1-1.9.4c-1.566,0-4.724-1.386-7.49-3.627s-5.144-5.336-5.144-8.755V18.81A4.088,4.088,0,0,1,25.8,14.723H42.889A4.087,4.087,0,0,1,46.977,18.81Zm0,0" transform="translate(1153.092 1177.856)" fill="#b57d49"/>
      <path id="Path_587" data-name="Path 587" d="M64.84,18.81V40.957c0,4.983-5.046,9.279-9,11.244a3.9,3.9,0,0,1-3.473,0,21.345,21.345,0,0,1-3.862-2.493c-2.767-2.24-5.143-5.336-5.143-8.755V18.81a4.088,4.088,0,0,1,4.088-4.088h13.3A4.087,4.087,0,0,1,64.84,18.81Zm0,0" transform="translate(1135.229 1177.856)" fill="#c68f5d"/>
      <g id="Group_976" data-name="Group 976" transform="translate(1177.358 1191.901)">
        <path id="Path_588" data-name="Path 588" d="M126.669,138.231a1.5,1.5,0,1,1-1.5-1.5A1.5,1.5,0,0,1,126.669,138.231Zm0,0" transform="translate(-108.37 -114.684)" fill="#464646"/>
        <path id="Path_589" data-name="Path 589" d="M121.163,112.439a.944.944,0,0,1-.5-.146c-1.165-.733-3.446-.476-4.226-.315a.948.948,0,0,1-.386-1.857c.363-.076,3.6-.7,5.621.567a.948.948,0,0,1-.506,1.751Zm0,0" transform="translate(-101.455 -92.55)" fill="#464646"/>
        <path id="Path_590" data-name="Path 590" d="M52.751,138.231a1.5,1.5,0,1,1-1.5-1.5A1.5,1.5,0,0,1,52.751,138.231Zm0,0" transform="translate(-47.4 -114.684)" fill="#464646"/>
        <path id="Path_591" data-name="Path 591" d="M37.247,112.439a.948.948,0,0,1-.5-1.751c2.017-1.269,5.258-.643,5.621-.567a.948.948,0,0,1-.387,1.856c-.781-.161-3.061-.417-4.225.315A.948.948,0,0,1,37.247,112.439Zm0,0" transform="translate(-36.298 -92.55)" fill="#464646"/>
        <path id="Path_592" data-name="Path 592" d="M77.241,178.463a3.831,3.831,0,0,1-3.827-3.827.948.948,0,1,1,1.9,0,1.931,1.931,0,1,0,3.861,0,.948.948,0,0,1,1.9,0A3.831,3.831,0,0,1,77.241,178.463Zm0,0" transform="translate(-66.912 -145.164)" fill="#464646"/>
        <path id="Path_593" data-name="Path 593" d="M155.993,25.295H144.2c-6.318,0-11.44-1.689-11.44-3.772v-6.9c0-2.083,5.122-3.772,11.44-3.772h2.478c6.318,0,11.44,1.689,11.44,3.772v9.972C158.116,24.981,157.166,25.295,155.993,25.295Zm0,0" transform="translate(-135.396 -11.852)"/>
        <path id="Path_618" data-name="Path 618" d="M155.993,21.321H144.2c-6.318,0-11.44-1.224-11.44-2.734v-5c0-1.51,5.122-2.734,11.44-2.734h2.478c6.318,0,11.44,1.224,11.44,2.734v7.228C158.116,21.094,157.166,21.321,155.993,21.321Zm0,0" transform="translate(-135.396 -11.852)" fill="#464646"/>
      </g>
      <path id="Path_596" data-name="Path 596" d="M130.059,417.449s-.122,5.716-6.37,10.227a.387.387,0,0,0-.115.5c.621,1.125,3.177,4.979,9.369,5.833,0,0,25.934-.167,25.934,0,6.191-.853,8.747-4.708,9.369-5.833a.389.389,0,0,0-.116-.5c-4.257-3.072-5.671-7.969-6.139-10.227Zm0,0" transform="translate(1069.495 845.988)" fill="#ff929c"/>
      <path id="Path_597" data-name="Path 597" d="M155.067,384.653a4.77,4.77,0,1,1-4.77-4.77A4.77,4.77,0,0,1,155.067,384.653Zm0,0" transform="translate(1051.216 876.921)" fill="#f2bb88"/>
      <path id="Path_598" data-name="Path 598" d="M302.868,384.657a4.77,4.77,0,1,1-4.77-4.77A4.77,4.77,0,0,1,302.868,384.657Zm0,0" transform="translate(929.561 876.918)" fill="#f2bb88"/>
      <path id="Path_599" data-name="Path 599" d="M202.957,280.613v22.181c0,3.424-2.379,6.525-5.151,8.769a19.723,19.723,0,0,1-5.62,3.241,6.138,6.138,0,0,1-1.88.393c-3.135,0-12.653-5.553-12.653-12.4V280.613a4.093,4.093,0,0,1,4.095-4.094h17.116A4.093,4.093,0,0,1,202.957,280.613Zm0,0" transform="translate(1024.85 962.232)" fill="#f2bb88"/>
      <path id="Path_600" data-name="Path 600" d="M220.665,280.613v22.181c0,3.424-2.379,6.525-5.151,8.769a19.723,19.723,0,0,1-5.62,3.241c-4-1.379-10.772-6.233-10.772-12.009V280.613a4.093,4.093,0,0,1,4.094-4.094h13.356A4.093,4.093,0,0,1,220.665,280.613Zm0,0" transform="translate(1007.164 962.232)" fill="#f2d1a5"/>
      <path id="Path_601" data-name="Path 601" d="M235,434.611a3.467,3.467,0,0,1-3.463-3.464.94.94,0,0,1,1.88,0,1.583,1.583,0,1,0,3.166,0,.94.94,0,0,1,1.881,0A3.468,3.468,0,0,1,235,434.611Zm0,0" transform="translate(980.407 835.465)" fill="#ff929c"/>
      <path id="Path_602" data-name="Path 602" d="M282.764,396.878a1.5,1.5,0,1,1-1.5-1.5A1.5,1.5,0,0,1,282.764,396.878Zm0,0" transform="translate(940.688 864.13)" fill="#ff929c"/>
      <path id="Path_603" data-name="Path 603" d="M277.3,379.671a.934.934,0,0,1-.5-.144c-1.169-.736-3.457-.478-4.24-.317a.94.94,0,0,1-.383-1.841c.363-.075,3.605-.7,5.623.566a.94.94,0,0,1-.5,1.737Zm0,0" transform="translate(947.57 879.155)" fill="#ff929c"/>
      <path id="Path_604" data-name="Path 604" d="M208.736,396.878a1.5,1.5,0,1,1-1.5-1.5A1.5,1.5,0,0,1,208.736,396.878Zm0,0" transform="translate(1001.629 864.13)" fill="#ff929c"/>
      <path id="Path_605" data-name="Path 605" d="M194.035,273.765v8.578a1.308,1.308,0,0,1-1.276,1.337,5.763,5.763,0,0,1-5.263-3.415l-1.28-2.862a1.1,1.1,0,0,0-2.043.066,10.737,10.737,0,0,1-2.838,4.207l-.1.088a12.433,12.433,0,0,1-12.564,2.515A1.25,1.25,0,0,0,167,285.459V296.5a1.922,1.922,0,0,1-3.845,0c0-.038,0-.057,0-16.3,0-6.951-.005-6.368,0-6.741a10.1,10.1,0,0,1,9.925-9.96h11.024A10.112,10.112,0,0,1,194.035,273.765Zm0,0" transform="translate(1036.813 972.974)" fill="#ff929c"/>
      <path id="Path_606" data-name="Path 606" d="M194.035,273.765v5.221a7.937,7.937,0,0,1-5.853-4.152l-1.78-3.583a1.608,1.608,0,0,0-2.846.082A13.5,13.5,0,0,1,179.6,276.6l-.135.112a18.437,18.437,0,0,1-11.66,4.058,19.151,19.151,0,0,1-4.656-.575c0-6.951-.005-6.368,0-6.741a10.1,10.1,0,0,1,9.925-9.96h11.024A10.112,10.112,0,0,1,194.035,273.765Zm0,0" transform="translate(1036.813 972.86)" fill="#fab7bd"/>
      <path id="Path_607" data-name="Path 607" d="M329.223,126a4.738,4.738,0,1,1-4.738-4.738A4.739,4.739,0,0,1,329.223,126Zm0,0" transform="translate(907.816 1090.066)" fill="#f2bb88"/>
      <path id="Path_608" data-name="Path 608" d="M464.676,126a4.738,4.738,0,1,1-4.738-4.738A4.738,4.738,0,0,1,464.676,126Zm0,0" transform="translate(796.324 1090.063)" fill="#f2bb88"/>
      <path id="Path_609" data-name="Path 609" d="M366.486,22.641V44.676c0,5.73-6.706,10.546-10.682,11.925a6.133,6.133,0,0,1-1.887.395c-1.557,0-4.7-1.379-7.452-3.609s-5.118-5.31-5.118-8.711V22.641a4.067,4.067,0,0,1,4.066-4.067h17.005A4.066,4.066,0,0,1,366.486,22.641Zm0,0" transform="translate(890.232 1174.679)" fill="#f2bb88"/>
      <path id="Path_610" data-name="Path 610" d="M384.255,22.641V44.676c0,4.958-5.021,9.233-8.95,11.187a3.878,3.878,0,0,1-3.455,0,21.212,21.212,0,0,1-3.842-2.48c-2.754-2.229-5.118-5.31-5.118-8.711V22.641a4.067,4.067,0,0,1,4.067-4.067h13.231A4.067,4.067,0,0,1,384.255,22.641Zm0,0" transform="translate(872.463 1174.679)" fill="#f2d1a5"/>
      <path id="Path_611" data-name="Path 611" d="M445.771,141.458a1.489,1.489,0,1,1-1.489-1.49A1.489,1.489,0,0,1,445.771,141.458Zm0,0" transform="translate(806.557 1074.638)" fill="#f29500"/>
      <path id="Path_612" data-name="Path 612" d="M372.229,141.458a1.489,1.489,0,1,1-1.49-1.49A1.489,1.489,0,0,1,372.229,141.458Zm0,0" transform="translate(867.021 1074.638)" fill="#f29500"/>
      <path id="Path_613" data-name="Path 613" d="M356.8,115.8a.944.944,0,0,1-.5-1.743c2.008-1.262,5.232-.638,5.593-.563a.944.944,0,0,1-.385,1.847c-.777-.16-3.045-.415-4.2.313A.94.94,0,0,1,356.8,115.8Zm0,0" transform="translate(878.073 1096.642)" fill="#f29500"/>
      <path id="Path_614" data-name="Path 614" d="M396.593,181.489a3.812,3.812,0,0,1-3.808-3.807.944.944,0,1,1,1.887,0,1.921,1.921,0,0,0,3.841,0,.944.944,0,1,1,1.887,0A3.812,3.812,0,0,1,396.593,181.489Zm0,0" transform="translate(847.805 1044.335)" fill="#f29500"/>
      <path id="Path_615" data-name="Path 615" d="M356.1,7.382V25.258c0,.129-.174.226-.357.2a18.319,18.319,0,0,1-8.9-4.513c-.194-.172-.594-.042-.517.17l1.18,3.315c.065.181-.227.32-.45.216-4.844-2.255-9.065-7.466-10.746-9.74-.149-.2-.594-.106-.553.118l.576,3.088c.034.172-.246.292-.454.194-9.1-4.271-9.386-14.139-9.386-14.139V2.885c0-.387.467-.7,1.042-.7h20.8C352.63,2.188,356.1,4.513,356.1,7.382Zm0,0" transform="translate(902.479 1188.196)" fill="#f29500"/>
      <path id="Path_616" data-name="Path 616" d="M361.2,7.382V18.336c0,.127-.174.223-.357.2a18.337,18.337,0,0,1-8.9-4.511c-.194-.172-.594-.041-.517.17l1.18,3.316c.065.178-.227.317-.45.213-4.845-2.254-9.065-7.466-10.746-9.739-.149-.2-.594-.107-.553.118l.576,3.088c.034.17-.246.29-.454.192a15.983,15.983,0,0,1-8.3-9.192h20.762C357.724,2.188,361.2,4.513,361.2,7.382Zm0,0" transform="translate(897.385 1188.196)" fill="#ffa90b"/>
    </g>
  </g>
</svg>
