<svg xmlns="http://www.w3.org/2000/svg" width="10.888" height="15.458" viewBox="0 0 10.888 15.458">
    <g id="prefix__pointing-up-arrow" transform="translate(-51.702)">
        <g id="prefix__Group_999" data-name="Group 999" transform="translate(51.702)">
            <g id="prefix__Group_998" data-name="Group 998">
                <g id="prefix__Group_997" data-name="Group 997">
                    <path id="prefix__Path_656" d="M62.59 6.506c0 .123-.056.41-.576.41h-2.389v7.9a.585.585 0 0 1 .006.086.506.506 0 0 1-.151.365.794.794 0 0 1-.574.187h-3.67a.572.572 0 0 1-.642-.55V7.082H52.4c-.612 0-.7-.291-.7-.465a1.032 1.032 0 0 1 .318-.609c.14-.19 3.935-5.224 4.487-5.777a.709.709 0 0 1 .54-.231.851.851 0 0 1 .566.29l4.633 5.6a1.04 1.04 0 0 1 .346.616z" data-name="Path 656" transform="translate(-51.702)" style="fill:#cecece"/>
                </g>
            </g>
        </g>
    </g>
</svg>
