<svg xmlns="http://www.w3.org/2000/svg" width="200" height="200" viewBox="0 0 200 200">
  <g id="Group_1080" data-name="Group 1080" transform="translate(-338 -8365)">
   
      <circle id="Ellipse_57" data-name="Ellipse 57" cx="20" cy="20" r="20" transform="translate(449 8470)" fill="#fff"/>
      <path id="Path_574" data-name="Path 574" d="M53.531,71.307a21.546,21.546,0,0,1,21.56-21.532,18.008,18.008,0,0,1,5.814,1.165,1.181,1.181,0,0,0,1.7-.915,36.982,36.982,0,0,0,1.229-9.218c0-.2-.112-25.614-.112-25.928,0-2.506-1.438-2.5-2.08-2.5-4.607.022-9.3.024-14.242-1.4C57.141,8.028,48.018,0,44.549,0c-3.36,0-10.134,8.029-20.4,10.983C18.366,12.649,12.817,12.34,7.625,12.1c-.61-.028-1.581-.19-1.889,1.922-.078.532-.474,26.5-.474,26.785C5.262,66.173,36.687,90,44.549,90c2.516,0,6.569-2.018,12.024-6.072.727-.627.337-1.043.122-1.393A21.4,21.4,0,0,1,53.531,71.307Z" transform="translate(394.738 8419)" fill="#fab7bd"/>
      <path id="Path_617" data-name="Path 617" d="M44.549,0c-3.36,0-10.134,8.029-20.4,10.983C18.366,12.649,12.817,12.34,7.625,12.1c-.61-.028-1.581-.19-1.889,1.922-.078.532-.474,26.5-.474,26.785C5.262,66.173,36.687,90,44.549,90c1.255,0,.045-.747,0-44.9C44.558.126,45.389,0,44.549,0Z" transform="translate(394.738 8419)" fill="#ff929c"/>
   
    <path id="Path_575" data-name="Path 575" d="M200.608,224.641a2.225,2.225,0,0,1-2.878.269l-9.936-6.668a1.925,1.925,0,0,1-.393-2.7l1.75-2.324a1.974,1.974,0,0,1,2.73-.4l5.043,3a2.234,2.234,0,0,0,2.882-.275l12.346-12.923a1.941,1.941,0,0,1,2.738-.1l2.129,1.982a1.949,1.949,0,0,1,.1,2.743Z" transform="translate(265.365 8276.643)" fill="#11912e"/>
  </g>
</svg>
