<svg xmlns="http://www.w3.org/2000/svg" width="200" height="200" viewBox="0 0 200 200">
    <path id="prefix__sun-shining" d="M100 30.517a3.152 3.152 0 0 0 3.153-3.153V3.153a3.153 3.153 0 1 0-6.305 0v24.211A3.153 3.153 0 0 0 100 30.517zm0 138.966a3.152 3.152 0 0 0-3.153 3.153v24.212a3.153 3.153 0 1 0 6.305 0v-24.212a3.152 3.152 0 0 0-3.152-3.153zm58.3-132.242l-9.169 9.169a3.153 3.153 0 0 0 4.459 4.458l9.169-9.169a3.153 3.153 0 1 0-4.459-4.458zM46.41 149.132l-9.169 9.168a3.153 3.153 0 0 0 4.459 4.458l9.169-9.169a3.153 3.153 0 0 0-4.459-4.458zm150.437-52.285h-24.212a3.153 3.153 0 1 0 0 6.305h24.212a3.153 3.153 0 1 0 0-6.305zm-169.483 0H3.153a3.153 3.153 0 0 0 0 6.305h24.212a3.153 3.153 0 0 0 0-6.305zm126.226 52.285a3.153 3.153 0 0 0-4.459 4.458l9.169 9.169a3.153 3.153 0 1 0 4.459-4.458zM46.488 50.943a3.152 3.152 0 0 0 4.3-4.609l-9.169-8.56a3.153 3.153 0 1 0-4.3 4.609z" style="fill:#ff929c"/>
</svg>
