<svg xmlns="http://www.w3.org/2000/svg" id="prefix__tap" width="42" height="60" viewBox="0 0 42 60">
    <defs>
        <style>
            .prefix__cls-1{fill:#ff929c}
        </style>
    </defs>
    <path id="prefix__Path_557" d="M3.1 69.723h.086a3.146 3.146 0 0 1 3.048 3.241v2.527a.9.9 0 1 0 1.809 0v-4.665a3.142 3.142 0 0 1 2.967-3.306 3.143 3.143 0 0 1 2.976 3.306v4.945a.9.9 0 1 0 1.809 0v-6.3a3.143 3.143 0 0 1 3.019-3.262h.086a3.04 3.04 0 0 1 2.961 3.125v7.1a.9.9 0 1 0 1.809 0v-6.898-.069-16.279a3.182 3.182 0 0 1 3.018-3.305 3.183 3.183 0 0 1 3.019 3.3l.022 26.717a.912.912 0 0 0 .6.858.9.9 0 0 0 1-.28L34.5 76.6a4.8 4.8 0 0 1 3.4-1.813 4.69 4.69 0 0 1 3.541 1.281l.035.033.619.522-10.974 21.256a9.723 9.723 0 0 1-8.544 5.456H9.9c-5.4 0-9.79-4.787-9.8-10.651v-7.311c-.007-5.016-.009-6.86 0-12.385a3.138 3.138 0 0 1 3-3.265zm0 0" class="prefix__cls-1" data-name="Path 557" transform="translate(-.09 -43.335)"/>
    <path id="prefix__Path_558" d="M66.167 10.2a.919.919 0 0 1-.919-.919 7.409 7.409 0 1 0-14.817 0 .919.919 0 0 1-1.838 0 9.246 9.246 0 1 1 18.493 0 .919.919 0 0 1-.919.919zm0 0" class="prefix__cls-1" data-name="Path 558" transform="translate(-31.453)"/>
</svg>
