<svg xmlns="http://www.w3.org/2000/svg" id="prefix__user_1_" width="60" height="60" data-name="user (1)" viewBox="0 0 60 60">
    <defs>
        <style>
            .prefix__cls-1{fill:#8d8d8d}
        </style>
    </defs>
    <path id="prefix__Path_554" d="M141.528 335.266a15.212 15.212 0 0 0-15.185 15.2c0 .485.024.965.069 1.438a30.025 30.025 0 0 0 30.232 0c.045-.474.069-.953.069-1.438a15.212 15.212 0 0 0-15.185-15.2zm0 0" class="prefix__cls-1" data-name="Path 554" transform="translate(-111.528 -295.99)"/>
    <path id="prefix__Path_555" d="M51.213 8.786A30 30 0 1 0 8.787 51.209a30.408 30.408 0 0 0 2.531 2.262 18.745 18.745 0 0 1 11.573-16.3 13.055 13.055 0 1 1 14.219 0 18.745 18.745 0 0 1 11.573 16.3 30.49 30.49 0 0 0 2.531-2.262 30 30 0 0 0 0-42.423zm0 0" class="prefix__cls-1" data-name="Path 555"/>
    <path id="prefix__Path_556" d="M193.691 152.014a9.545 9.545 0 1 0-9.545 9.545 9.556 9.556 0 0 0 9.545-9.545zm0 0" class="prefix__cls-1" data-name="Path 556" transform="translate(-154.146 -125.778)"/>
</svg>
