<svg xmlns="http://www.w3.org/2000/svg" width="200" height="200" viewBox="0 0 200 200">
  <g id="Group_1087" data-name="Group 1087" transform="translate(-344 -7711)">
    <circle id="Ellipse_54" data-name="Ellipse 54" cx="45" cy="45" r="45" transform="translate(396 7764)" fill="#fff"/>
  <path id="Path_623" data-name="Path 623" d="M67.408,75.932a42.152,42.152,0,1,1,8.518-8.518" transform="translate(399 7765.994)" fill="#ff929c"/>
    <path id="Path_624" data-name="Path 624" d="M64.183,34.133a1.365,1.365,0,0,0,.01-.346A74.632,74.632,0,0,0,62.2,22.448H79.43q-.739-1.4-1.579-2.727H61.427A48.472,48.472,0,0,0,56.784,9.009,23.814,23.814,0,0,0,48.746.518a42.49,42.49,0,0,0-13.232.01c-3.578,2.1-6.825,5.908-9.479,11.216a52.19,52.19,0,0,0-3.154,7.978H6.467q-.839,1.33-1.579,2.727H22.109A78.549,78.549,0,0,0,19.728,40.8H.024C.01,41.255,0,41.709,0,42.165s.01.91.024,1.363h19.7a78.568,78.568,0,0,0,2.381,18.353H4.888q.739,1.4,1.579,2.727H22.88a52.2,52.2,0,0,0,3.154,7.978c2.654,5.308,5.9,9.116,9.479,11.215a42.482,42.482,0,0,0,13.276,0c3.447-2.02,6.592-5.623,9.189-10.619a1.368,1.368,0,0,0,.137-.418l1.281-8.16H77.853q.838-1.331,1.579-2.727H59.825l2.882-18.353H84.294c.014-.453.024-.907.024-1.363s-.01-.911-.024-1.363H63.135ZM40.8,82.862c-4.587-.667-8.92-4.689-12.323-11.495a48.75,48.75,0,0,1-2.735-6.759H40.8V82.862Zm0-20.98H24.927a75.234,75.234,0,0,1-2.472-18.353H40.8V61.882Zm0-21.08H22.455a75.227,75.227,0,0,1,2.472-18.353H40.8V40.8Zm0-21.08H25.738a48.77,48.77,0,0,1,2.735-6.759C31.876,6.157,36.209,2.136,40.8,1.469V19.722ZM43.523,1.472c3.94.589,7.774,3.711,10.925,8.943a44.866,44.866,0,0,1,4.124,9.307H43.523V1.472ZM55.457,72.123c-3.341,6.34-7.531,10.094-11.934,10.739V64.608H56.637Zm1.608-10.242H43.523V43.529H59.947Zm3.31-21.08H43.522V22.448H59.381a71.391,71.391,0,0,1,2.08,11.435Z" transform="translate(399 7765.996)" fill="#fab7bd"/>
    <path id="Path_625" data-name="Path 625" d="M231.634.006c-.621,0-1.239.016-1.854.042,22.884.952,41.139,19.443,41.139,42.118a41.441,41.441,0,0,1-8.559,25.248l-8.686,8.518a43.309,43.309,0,0,1-23.866,8.353c.605.025,1.213.04,1.825.04a43.361,43.361,0,0,0,25.748-8.394l8.686-8.518a41.442,41.442,0,0,0,8.559-25.248C274.626,18.881,255.378.006,231.634.006Z" transform="translate(208.691 7765.994)" fill="#d0767f"/>
    <g id="Group_985" data-name="Group 985" transform="translate(473.019 7806.756)">
      <path id="Path_626" data-name="Path 626" d="M424.346,352.439q-.754,1.423-1.61,2.78h3.707l.007-.012q.849-1.348,1.6-2.763l0-.006Z" transform="translate(-422.736 -331.364)" fill="#e3a7ad"/>
      <path id="Path_627" data-name="Path 627" d="M463.127,232.373H459.42c.015.462.025.925.025,1.39s-.01.928-.024,1.39h3.707q.01-.33.017-.66c0-.243.007-.486.007-.729,0-.283-.005-.565-.011-.846Q463.136,232.645,463.127,232.373Z" transform="translate(-452.852 -232.373)" fill="#e3a7ad"/>
    </g>
    <g id="Group_986" data-name="Group 986" transform="translate(439.294 7766.002)">
      <path id="Path_628" data-name="Path 628" d="M240.211,1.79A17.585,17.585,0,0,0,238.348.528c-.2-.032-.408-.061-.613-.09L237.4.391q-.288-.039-.578-.074l-.4-.045c-.179-.02-.359-.04-.539-.058q-.434-.043-.871-.077c-.128-.01-.258-.018-.387-.026-.206-.014-.413-.028-.62-.039l-.389-.019q-.331-.015-.664-.025l-.332-.01c-.332-.008-.664-.013-1-.013-.621,0-1.239.016-1.854.042A42.914,42.914,0,0,1,240.211,1.79Z" transform="translate(-229.777 -0.004)" fill="#fab7bd"/>
      <path id="Path_629" data-name="Path 629" d="M233.084,472.024c.141,0,.283-.007.424-.013.2-.008.4-.019.6-.03l.252-.013c.235-.014.47-.031.7-.049l.138-.01q.387-.031.772-.069l.063-.006q.409-.041.816-.089l.014,0q.834-.1,1.659-.229a17.435,17.435,0,0,0,1.857-1.263A42.893,42.893,0,0,1,229.94,472c.605.025,1.213.041,1.825.041q.44,0,.878-.009C232.79,472.034,232.937,472.028,233.084,472.024Z" transform="translate(-229.911 -387.727)" fill="#fab7bd"/>
    </g>
    <path id="Path_630" data-name="Path 630" d="M424.334,115.087h3.706q-.754-1.423-1.61-2.78h-3.708Q423.578,113.664,424.334,115.087Z" transform="translate(50.294 7673.422)" fill="#e3a7ad"/>
    <rect id="Rectangle_726" data-name="Rectangle 726" width="8.421" height="6.141" transform="translate(468.806 7840.148) rotate(-135)" fill="#8d8d8d"/>
    <circle id="Ellipse_60" data-name="Ellipse 60" cx="21.497" cy="21.497" r="21.497" transform="translate(429.463 7796.465)" fill="#8d8d8d"/>
    <circle id="Ellipse_61" data-name="Ellipse 61" cx="15.354" cy="15.354" r="15.354" transform="translate(435.656 7802.656)" fill="#b6e3ee"/>
    <path id="Path_631" data-name="Path 631" d="M298.614,215.012a15.322,15.322,0,0,0-12.711-4.381,15.35,15.35,0,0,1,0,30.477,15.351,15.351,0,0,0,12.711-26.1Z" transform="translate(163.139 7592.143)" fill="#96d2e0"/>
    <path id="Path_632" data-name="Path 632" d="M406.368,399.254l-7.113,7.113a1.112,1.112,0,0,1-1.573,0L384.055,392.74a1.112,1.112,0,0,1,0-1.573l7.113-7.113a1.112,1.112,0,0,1,1.573,0l13.627,13.627A1.112,1.112,0,0,1,406.368,399.254Z" transform="translate(82.306 7449.307)" fill="#cecece"/>
    <path id="Path_633" data-name="Path 633" d="M413.26,384.049l-2.621,2.621a1.112,1.112,0,0,1,1.573,0L425.839,400.3a1.112,1.112,0,0,1,0,1.573l2.621-2.621a1.112,1.112,0,0,0,0-1.573l-13.628-13.628A1.112,1.112,0,0,0,413.26,384.049Z" transform="translate(60.214 7449.311)" fill="#8d8d8d"/>
    <path id="Path_634" data-name="Path 634" d="M408.6,399.918h0l-8.686,8.686h0l1.966,1.966h0l8.686-8.686h0Z" transform="translate(69.015 7436.016)" fill="#fab7bd"/>
    <path id="Path_635" data-name="Path 635" d="M436.534,399.918h0l-2.605,2.641,1.957,1.961,2.566-2.439.146-.106Z" transform="translate(41.062 7436.016)" fill="#ff929c"/>
  </g>
</svg>
